<mxfile host="app.diagrams.net" modified="2023-03-13T03:21:45.873Z" agent="5.0 (Macintosh; Intel Mac OS X 10_15_7) AppleWebKit/537.36 (KHTML, like Gecko) Chrome/110.0.0.0 Safari/537.36" etag="NSCXsTVkKoaTps-DRTQ-" version="20.8.23" type="github">
  <diagram name="第 1 页" id="GjBEDHpOoYwPvvLWHBtA">
    <mxGraphModel dx="905" dy="1735" grid="1" gridSize="10" guides="1" tooltips="1" connect="1" arrows="1" fold="1" page="1" pageScale="1" pageWidth="827" pageHeight="1169" math="0" shadow="0">
      <root>
        <mxCell id="0" />
        <mxCell id="1" parent="0" />
        <mxCell id="6syj6s5cMVSccxYBOCFn-93" value="" style="group" vertex="1" connectable="0" parent="1">
          <mxGeometry x="80" y="370" width="720" height="444" as="geometry" />
        </mxCell>
        <mxCell id="6syj6s5cMVSccxYBOCFn-72" value="增量用户" style="sketch=0;outlineConnect=0;fontColor=#232F3E;gradientColor=none;fillColor=#232F3D;strokeColor=none;dashed=0;verticalLabelPosition=bottom;verticalAlign=top;align=center;html=1;fontSize=12;fontStyle=0;aspect=fixed;pointerEvents=1;shape=mxgraph.aws4.user;" vertex="1" parent="6syj6s5cMVSccxYBOCFn-93">
          <mxGeometry y="190" width="50" height="50" as="geometry" />
        </mxCell>
        <mxCell id="6syj6s5cMVSccxYBOCFn-75" value="低版本&lt;br&gt;（例如IOS &amp;lt; 10）" style="rounded=1;whiteSpace=wrap;html=1;" vertex="1" parent="6syj6s5cMVSccxYBOCFn-93">
          <mxGeometry x="110" y="60" width="120" height="60" as="geometry" />
        </mxCell>
        <mxCell id="6syj6s5cMVSccxYBOCFn-70" value="" style="edgeStyle=orthogonalEdgeStyle;rounded=0;orthogonalLoop=1;jettySize=auto;html=1;entryX=0;entryY=0.5;entryDx=0;entryDy=0;" edge="1" parent="6syj6s5cMVSccxYBOCFn-93" source="6syj6s5cMVSccxYBOCFn-72" target="6syj6s5cMVSccxYBOCFn-75">
          <mxGeometry relative="1" as="geometry">
            <mxPoint x="110" y="289" as="targetPoint" />
          </mxGeometry>
        </mxCell>
        <mxCell id="6syj6s5cMVSccxYBOCFn-78" value="高版本&lt;br&gt;（例如IOS &amp;gt;= 10）" style="rounded=1;whiteSpace=wrap;html=1;" vertex="1" parent="6syj6s5cMVSccxYBOCFn-93">
          <mxGeometry x="110" y="330" width="120" height="60" as="geometry" />
        </mxCell>
        <mxCell id="6syj6s5cMVSccxYBOCFn-71" style="edgeStyle=orthogonalEdgeStyle;rounded=0;orthogonalLoop=1;jettySize=auto;html=1;entryX=0;entryY=0.5;entryDx=0;entryDy=0;" edge="1" parent="6syj6s5cMVSccxYBOCFn-93" source="6syj6s5cMVSccxYBOCFn-72" target="6syj6s5cMVSccxYBOCFn-78">
          <mxGeometry relative="1" as="geometry" />
        </mxCell>
        <mxCell id="6syj6s5cMVSccxYBOCFn-80" value="前端逻辑处理【注意执行时机】，优先级判断机型" style="rounded=1;whiteSpace=wrap;html=1;" vertex="1" parent="6syj6s5cMVSccxYBOCFn-93">
          <mxGeometry x="440" y="60" width="120" height="60" as="geometry" />
        </mxCell>
        <mxCell id="6syj6s5cMVSccxYBOCFn-81" value="&lt;font color=&quot;#ff0000&quot;&gt;引导升级&lt;/font&gt;" style="rounded=1;whiteSpace=wrap;html=1;" vertex="1" parent="6syj6s5cMVSccxYBOCFn-93">
          <mxGeometry x="600" width="120" height="60" as="geometry" />
        </mxCell>
        <mxCell id="6syj6s5cMVSccxYBOCFn-79" value="" style="edgeStyle=orthogonalEdgeStyle;rounded=0;orthogonalLoop=1;jettySize=auto;html=1;" edge="1" parent="6syj6s5cMVSccxYBOCFn-93" source="6syj6s5cMVSccxYBOCFn-80" target="6syj6s5cMVSccxYBOCFn-81">
          <mxGeometry relative="1" as="geometry" />
        </mxCell>
        <mxCell id="6syj6s5cMVSccxYBOCFn-82" value="遵循 灰度逻辑" style="rounded=1;whiteSpace=wrap;html=1;arcSize=0;" vertex="1" parent="6syj6s5cMVSccxYBOCFn-93">
          <mxGeometry x="430" y="324" width="120" height="60" as="geometry" />
        </mxCell>
        <mxCell id="6syj6s5cMVSccxYBOCFn-83" style="edgeStyle=orthogonalEdgeStyle;rounded=0;orthogonalLoop=1;jettySize=auto;html=1;" edge="1" parent="6syj6s5cMVSccxYBOCFn-93" source="6syj6s5cMVSccxYBOCFn-84" target="6syj6s5cMVSccxYBOCFn-80">
          <mxGeometry relative="1" as="geometry" />
        </mxCell>
        <mxCell id="6syj6s5cMVSccxYBOCFn-84" value="旧页面" style="rounded=1;whiteSpace=wrap;html=1;" vertex="1" parent="6syj6s5cMVSccxYBOCFn-93">
          <mxGeometry x="270" width="120" height="60" as="geometry" />
        </mxCell>
        <mxCell id="6syj6s5cMVSccxYBOCFn-73" style="edgeStyle=orthogonalEdgeStyle;rounded=0;orthogonalLoop=1;jettySize=auto;html=1;entryX=0;entryY=0.5;entryDx=0;entryDy=0;" edge="1" parent="6syj6s5cMVSccxYBOCFn-93" source="6syj6s5cMVSccxYBOCFn-75" target="6syj6s5cMVSccxYBOCFn-84">
          <mxGeometry relative="1" as="geometry" />
        </mxCell>
        <mxCell id="6syj6s5cMVSccxYBOCFn-85" style="edgeStyle=orthogonalEdgeStyle;rounded=0;orthogonalLoop=1;jettySize=auto;html=1;entryX=0;entryY=0.5;entryDx=0;entryDy=0;" edge="1" parent="6syj6s5cMVSccxYBOCFn-93" source="6syj6s5cMVSccxYBOCFn-86" target="6syj6s5cMVSccxYBOCFn-80">
          <mxGeometry relative="1" as="geometry" />
        </mxCell>
        <mxCell id="6syj6s5cMVSccxYBOCFn-86" value="新页面" style="rounded=1;whiteSpace=wrap;html=1;" vertex="1" parent="6syj6s5cMVSccxYBOCFn-93">
          <mxGeometry x="270" y="120" width="120" height="60" as="geometry" />
        </mxCell>
        <mxCell id="6syj6s5cMVSccxYBOCFn-74" style="edgeStyle=orthogonalEdgeStyle;rounded=0;orthogonalLoop=1;jettySize=auto;html=1;entryX=0;entryY=0.5;entryDx=0;entryDy=0;" edge="1" parent="6syj6s5cMVSccxYBOCFn-93" source="6syj6s5cMVSccxYBOCFn-75" target="6syj6s5cMVSccxYBOCFn-86">
          <mxGeometry relative="1" as="geometry" />
        </mxCell>
        <mxCell id="6syj6s5cMVSccxYBOCFn-87" style="edgeStyle=orthogonalEdgeStyle;rounded=0;orthogonalLoop=1;jettySize=auto;html=1;entryX=0;entryY=0.5;entryDx=0;entryDy=0;" edge="1" parent="6syj6s5cMVSccxYBOCFn-93" source="6syj6s5cMVSccxYBOCFn-88" target="6syj6s5cMVSccxYBOCFn-82">
          <mxGeometry relative="1" as="geometry" />
        </mxCell>
        <mxCell id="6syj6s5cMVSccxYBOCFn-88" value="旧页面" style="rounded=1;whiteSpace=wrap;html=1;" vertex="1" parent="6syj6s5cMVSccxYBOCFn-93">
          <mxGeometry x="270" y="264" width="120" height="60" as="geometry" />
        </mxCell>
        <mxCell id="6syj6s5cMVSccxYBOCFn-76" style="edgeStyle=orthogonalEdgeStyle;rounded=0;orthogonalLoop=1;jettySize=auto;html=1;entryX=0;entryY=0.5;entryDx=0;entryDy=0;" edge="1" parent="6syj6s5cMVSccxYBOCFn-93" source="6syj6s5cMVSccxYBOCFn-78" target="6syj6s5cMVSccxYBOCFn-88">
          <mxGeometry relative="1" as="geometry" />
        </mxCell>
        <mxCell id="6syj6s5cMVSccxYBOCFn-89" style="edgeStyle=orthogonalEdgeStyle;rounded=0;orthogonalLoop=1;jettySize=auto;html=1;entryX=0;entryY=0.5;entryDx=0;entryDy=0;" edge="1" parent="6syj6s5cMVSccxYBOCFn-93" source="6syj6s5cMVSccxYBOCFn-90" target="6syj6s5cMVSccxYBOCFn-82">
          <mxGeometry relative="1" as="geometry" />
        </mxCell>
        <mxCell id="6syj6s5cMVSccxYBOCFn-90" value="新页面" style="rounded=1;whiteSpace=wrap;html=1;" vertex="1" parent="6syj6s5cMVSccxYBOCFn-93">
          <mxGeometry x="270" y="384" width="120" height="60" as="geometry" />
        </mxCell>
        <mxCell id="6syj6s5cMVSccxYBOCFn-77" style="edgeStyle=orthogonalEdgeStyle;rounded=0;orthogonalLoop=1;jettySize=auto;html=1;entryX=0;entryY=0.5;entryDx=0;entryDy=0;" edge="1" parent="6syj6s5cMVSccxYBOCFn-93" source="6syj6s5cMVSccxYBOCFn-78" target="6syj6s5cMVSccxYBOCFn-90">
          <mxGeometry relative="1" as="geometry" />
        </mxCell>
        <mxCell id="6syj6s5cMVSccxYBOCFn-91" value="&lt;font color=&quot;#ff0000&quot;&gt;统一跳转旧页面，走旧流程&lt;/font&gt;" style="rounded=1;whiteSpace=wrap;html=1;" vertex="1" parent="6syj6s5cMVSccxYBOCFn-93">
          <mxGeometry x="600" y="110" width="120" height="60" as="geometry" />
        </mxCell>
        <mxCell id="6syj6s5cMVSccxYBOCFn-92" style="edgeStyle=orthogonalEdgeStyle;rounded=0;orthogonalLoop=1;jettySize=auto;html=1;entryX=0;entryY=0.5;entryDx=0;entryDy=0;" edge="1" parent="6syj6s5cMVSccxYBOCFn-93" source="6syj6s5cMVSccxYBOCFn-80" target="6syj6s5cMVSccxYBOCFn-91">
          <mxGeometry relative="1" as="geometry" />
        </mxCell>
        <mxCell id="6syj6s5cMVSccxYBOCFn-94" value="" style="group" vertex="1" connectable="0" parent="1">
          <mxGeometry x="90" y="-130" width="710" height="444" as="geometry" />
        </mxCell>
        <mxCell id="6syj6s5cMVSccxYBOCFn-1" value="存量用户" style="sketch=0;outlineConnect=0;fontColor=#232F3E;gradientColor=none;fillColor=#232F3D;strokeColor=none;dashed=0;verticalLabelPosition=bottom;verticalAlign=top;align=center;html=1;fontSize=12;fontStyle=0;aspect=fixed;pointerEvents=1;shape=mxgraph.aws4.user;" vertex="1" parent="6syj6s5cMVSccxYBOCFn-94">
          <mxGeometry y="190" width="50" height="50" as="geometry" />
        </mxCell>
        <mxCell id="6syj6s5cMVSccxYBOCFn-6" value="低版本&lt;br&gt;（例如IOS &amp;lt; 10）" style="rounded=1;whiteSpace=wrap;html=1;" vertex="1" parent="6syj6s5cMVSccxYBOCFn-94">
          <mxGeometry x="110" y="60" width="120" height="60" as="geometry" />
        </mxCell>
        <mxCell id="6syj6s5cMVSccxYBOCFn-4" value="" style="edgeStyle=orthogonalEdgeStyle;rounded=0;orthogonalLoop=1;jettySize=auto;html=1;entryX=0;entryY=0.5;entryDx=0;entryDy=0;" edge="1" parent="6syj6s5cMVSccxYBOCFn-94" source="6syj6s5cMVSccxYBOCFn-1" target="6syj6s5cMVSccxYBOCFn-6">
          <mxGeometry relative="1" as="geometry">
            <mxPoint x="110" y="289" as="targetPoint" />
          </mxGeometry>
        </mxCell>
        <mxCell id="6syj6s5cMVSccxYBOCFn-8" value="高版本&lt;br&gt;（例如IOS &amp;gt;= 10）" style="rounded=1;whiteSpace=wrap;html=1;" vertex="1" parent="6syj6s5cMVSccxYBOCFn-94">
          <mxGeometry x="110" y="330" width="120" height="60" as="geometry" />
        </mxCell>
        <mxCell id="6syj6s5cMVSccxYBOCFn-29" style="edgeStyle=orthogonalEdgeStyle;rounded=0;orthogonalLoop=1;jettySize=auto;html=1;entryX=0;entryY=0.5;entryDx=0;entryDy=0;" edge="1" parent="6syj6s5cMVSccxYBOCFn-94" source="6syj6s5cMVSccxYBOCFn-1" target="6syj6s5cMVSccxYBOCFn-8">
          <mxGeometry relative="1" as="geometry" />
        </mxCell>
        <mxCell id="6syj6s5cMVSccxYBOCFn-10" value="前端逻辑处理【注意执行时机】，优先级判断机型" style="rounded=1;whiteSpace=wrap;html=1;" vertex="1" parent="6syj6s5cMVSccxYBOCFn-94">
          <mxGeometry x="440" y="60" width="120" height="60" as="geometry" />
        </mxCell>
        <mxCell id="6syj6s5cMVSccxYBOCFn-12" value="统一跳转旧页面，走旧流程" style="rounded=1;whiteSpace=wrap;html=1;" vertex="1" parent="6syj6s5cMVSccxYBOCFn-94">
          <mxGeometry x="590" y="60" width="120" height="60" as="geometry" />
        </mxCell>
        <mxCell id="6syj6s5cMVSccxYBOCFn-13" value="" style="edgeStyle=orthogonalEdgeStyle;rounded=0;orthogonalLoop=1;jettySize=auto;html=1;" edge="1" parent="6syj6s5cMVSccxYBOCFn-94" source="6syj6s5cMVSccxYBOCFn-10" target="6syj6s5cMVSccxYBOCFn-12">
          <mxGeometry relative="1" as="geometry" />
        </mxCell>
        <mxCell id="6syj6s5cMVSccxYBOCFn-14" value="遵循 灰度逻辑" style="rounded=1;whiteSpace=wrap;html=1;arcSize=0;" vertex="1" parent="6syj6s5cMVSccxYBOCFn-94">
          <mxGeometry x="430" y="324" width="120" height="60" as="geometry" />
        </mxCell>
        <mxCell id="6syj6s5cMVSccxYBOCFn-34" style="edgeStyle=orthogonalEdgeStyle;rounded=0;orthogonalLoop=1;jettySize=auto;html=1;" edge="1" parent="6syj6s5cMVSccxYBOCFn-94" source="6syj6s5cMVSccxYBOCFn-30" target="6syj6s5cMVSccxYBOCFn-10">
          <mxGeometry relative="1" as="geometry" />
        </mxCell>
        <mxCell id="6syj6s5cMVSccxYBOCFn-30" value="旧页面" style="rounded=1;whiteSpace=wrap;html=1;" vertex="1" parent="6syj6s5cMVSccxYBOCFn-94">
          <mxGeometry x="270" width="120" height="60" as="geometry" />
        </mxCell>
        <mxCell id="6syj6s5cMVSccxYBOCFn-32" style="edgeStyle=orthogonalEdgeStyle;rounded=0;orthogonalLoop=1;jettySize=auto;html=1;entryX=0;entryY=0.5;entryDx=0;entryDy=0;" edge="1" parent="6syj6s5cMVSccxYBOCFn-94" source="6syj6s5cMVSccxYBOCFn-6" target="6syj6s5cMVSccxYBOCFn-30">
          <mxGeometry relative="1" as="geometry" />
        </mxCell>
        <mxCell id="6syj6s5cMVSccxYBOCFn-35" style="edgeStyle=orthogonalEdgeStyle;rounded=0;orthogonalLoop=1;jettySize=auto;html=1;entryX=0;entryY=0.5;entryDx=0;entryDy=0;" edge="1" parent="6syj6s5cMVSccxYBOCFn-94" source="6syj6s5cMVSccxYBOCFn-31" target="6syj6s5cMVSccxYBOCFn-10">
          <mxGeometry relative="1" as="geometry" />
        </mxCell>
        <mxCell id="6syj6s5cMVSccxYBOCFn-31" value="新页面" style="rounded=1;whiteSpace=wrap;html=1;" vertex="1" parent="6syj6s5cMVSccxYBOCFn-94">
          <mxGeometry x="270" y="120" width="120" height="60" as="geometry" />
        </mxCell>
        <mxCell id="6syj6s5cMVSccxYBOCFn-33" style="edgeStyle=orthogonalEdgeStyle;rounded=0;orthogonalLoop=1;jettySize=auto;html=1;entryX=0;entryY=0.5;entryDx=0;entryDy=0;" edge="1" parent="6syj6s5cMVSccxYBOCFn-94" source="6syj6s5cMVSccxYBOCFn-6" target="6syj6s5cMVSccxYBOCFn-31">
          <mxGeometry relative="1" as="geometry" />
        </mxCell>
        <mxCell id="6syj6s5cMVSccxYBOCFn-41" style="edgeStyle=orthogonalEdgeStyle;rounded=0;orthogonalLoop=1;jettySize=auto;html=1;entryX=0;entryY=0.5;entryDx=0;entryDy=0;" edge="1" parent="6syj6s5cMVSccxYBOCFn-94" source="6syj6s5cMVSccxYBOCFn-37" target="6syj6s5cMVSccxYBOCFn-14">
          <mxGeometry relative="1" as="geometry" />
        </mxCell>
        <mxCell id="6syj6s5cMVSccxYBOCFn-37" value="旧页面" style="rounded=1;whiteSpace=wrap;html=1;" vertex="1" parent="6syj6s5cMVSccxYBOCFn-94">
          <mxGeometry x="270" y="264" width="120" height="60" as="geometry" />
        </mxCell>
        <mxCell id="6syj6s5cMVSccxYBOCFn-39" style="edgeStyle=orthogonalEdgeStyle;rounded=0;orthogonalLoop=1;jettySize=auto;html=1;entryX=0;entryY=0.5;entryDx=0;entryDy=0;" edge="1" parent="6syj6s5cMVSccxYBOCFn-94" source="6syj6s5cMVSccxYBOCFn-8" target="6syj6s5cMVSccxYBOCFn-37">
          <mxGeometry relative="1" as="geometry" />
        </mxCell>
        <mxCell id="6syj6s5cMVSccxYBOCFn-42" style="edgeStyle=orthogonalEdgeStyle;rounded=0;orthogonalLoop=1;jettySize=auto;html=1;entryX=0;entryY=0.5;entryDx=0;entryDy=0;" edge="1" parent="6syj6s5cMVSccxYBOCFn-94" source="6syj6s5cMVSccxYBOCFn-38" target="6syj6s5cMVSccxYBOCFn-14">
          <mxGeometry relative="1" as="geometry" />
        </mxCell>
        <mxCell id="6syj6s5cMVSccxYBOCFn-38" value="新页面" style="rounded=1;whiteSpace=wrap;html=1;" vertex="1" parent="6syj6s5cMVSccxYBOCFn-94">
          <mxGeometry x="270" y="384" width="120" height="60" as="geometry" />
        </mxCell>
        <mxCell id="6syj6s5cMVSccxYBOCFn-40" style="edgeStyle=orthogonalEdgeStyle;rounded=0;orthogonalLoop=1;jettySize=auto;html=1;entryX=0;entryY=0.5;entryDx=0;entryDy=0;" edge="1" parent="6syj6s5cMVSccxYBOCFn-94" source="6syj6s5cMVSccxYBOCFn-8" target="6syj6s5cMVSccxYBOCFn-38">
          <mxGeometry relative="1" as="geometry" />
        </mxCell>
      </root>
    </mxGraphModel>
  </diagram>
</mxfile>
